<svg width="17" height="17" viewBox="0 0 17 17" fill="none" xmlns="http://www.w3.org/2000/svg">
<path fill-rule="evenodd" clip-rule="evenodd" d="M13.2547 4.2431C13.5172 4.50555 13.5172 4.93106 13.2547 5.19351L5.19022 13.258C4.92777 13.5205 4.50225 13.5205 4.23981 13.258C3.97736 12.9956 3.97736 12.5701 4.23981 12.3076L12.3043 4.2431C12.5668 3.98065 12.9923 3.98065 13.2547 4.2431Z" fill="#1D1D1F"/>
<path fill-rule="evenodd" clip-rule="evenodd" d="M4.23981 4.2431C4.50225 3.98065 4.92777 3.98065 5.19022 4.2431L13.2547 12.3076C13.5172 12.5701 13.5172 12.9956 13.2547 13.258C12.9923 13.5205 12.5668 13.5205 12.3043 13.258L4.23981 5.19351C3.97736 4.93106 3.97736 4.50555 4.23981 4.2431Z" fill="#1D1D1F"/>
</svg>
