<svg width="220" height="48" viewBox="0 0 220 48" fill="none" xmlns="http://www.w3.org/2000/svg">
<path fill-rule="evenodd" clip-rule="evenodd" d="M45.603 16.6997C44.9897 15.2637 44.3084 13.6686 41.4663 14.6453V6.89655C41.4663 2.89523 34.7196 0 26.5 0C18.2804 0 11.5337 2.89523 11.5337 6.89655V41.1034C11.5337 45.1048 18.2804 48 26.5 48C34.7196 48 41.4663 45.1048 41.4663 41.1034V20.4599C44.0016 20.7935 44.5486 22.7863 44.0751 24.8474L46.6839 25.2612C47.2692 21.4816 45.9834 18.9679 41.4663 18.7711V17.1948C43.202 16.3589 44.2631 17.7252 45.3512 19.1262C46.2435 20.275 47.1538 21.4471 48.4689 21.4471C50.3912 21.4471 51.9016 20.4816 53 18.5505L50.6658 15.3781C50.2081 17.4931 49.1097 18.5505 47.3705 18.5505C46.3935 18.5505 46.0135 17.6607 45.603 16.6997ZM30.4898 25.737C29.1593 25.4131 27.7914 25.0801 26.4449 25.0801C25.0768 25.0801 23.6947 25.42 22.3551 25.7494C18.8577 26.6094 15.651 27.398 13.7452 21.879C11.4206 15.1465 16.7273 16.6302 21.5659 17.9829C23.4433 18.5078 25.2503 19.013 26.5136 19.0109C27.7277 19.0088 29.4709 18.5356 31.2936 18.0407L31.2936 18.0407C36.0905 16.7385 41.4385 15.2867 39.1449 21.879C37.2314 27.378 33.9897 26.5889 30.4898 25.737ZM19.7657 20.7469C19.1763 20.4767 18.5928 20.2286 18.0421 20.049C17.9652 21.0237 18.3857 21.9303 19.3238 22.8138C20.1427 23.585 20.9144 23.675 21.7419 23.0086C22.0146 22.7081 22.2508 22.369 22.4506 21.9914C22.114 21.8503 21.7635 21.6901 21.4056 21.5219C21.4149 21.5796 21.4197 21.6387 21.4197 21.699C21.4197 22.3085 20.9279 22.8025 20.3213 22.8025C19.7146 22.8025 19.2228 22.3085 19.2228 21.699C19.2228 21.2932 19.4409 20.9386 19.7657 20.7469ZM14.829 21.0094C15.1835 19.9412 15.969 19.6619 16.9637 19.7909C16.796 21.1648 17.34 22.458 18.5726 23.6188C18.9278 23.9533 19.287 24.1983 19.6478 24.3556C19.0714 24.5544 18.4263 24.6804 17.7124 24.7335C20.5032 25.2592 22.5046 24.4911 23.7166 22.4292C24.8807 22.7109 25.6762 22.4358 25.6762 20.8715C25.2709 22.4999 23.4253 21.3818 21.3644 20.1332C18.5375 18.4205 15.3055 16.4624 14.829 21.0094ZM31.5868 21.4993C31.2255 21.6858 30.8714 21.8604 30.5297 22.0068C30.7303 22.3874 30.9678 22.7288 31.2422 23.0312C32.0698 23.6977 32.8414 23.6076 33.6603 22.8364C34.6425 21.9114 35.0573 20.9611 34.928 19.9339C34.3352 20.111 33.7171 20.3947 33.0984 20.7084C33.4884 20.8778 33.7613 21.2677 33.7613 21.7217C33.7613 22.3311 33.2695 22.8251 32.6629 22.8251C32.0562 22.8251 31.5644 22.3311 31.5644 21.7217C31.5644 21.6455 31.5721 21.5712 31.5868 21.4993ZM27.5716 21.7217C27.9864 22.3328 28.5627 22.4964 29.2389 22.4028C30.448 24.5015 32.4589 25.286 35.2717 24.7562C34.5579 24.7031 33.9128 24.5771 33.3364 24.3782C33.6971 24.2209 34.0564 23.976 34.4116 23.6414C35.6646 22.4614 36.206 21.1444 36.0115 19.745C36.8499 19.7257 37.5936 20.0648 38.1551 21.032C37.6211 16.0912 34.5635 18.0921 31.7105 19.959C30.1033 21.0107 28.5611 22.0199 27.5716 21.7217ZM27.0224 19.6527C27.0224 20.4218 27.4343 21.032 28.1208 21.17C27.4343 21.3079 26.6104 20.7562 27.0224 19.6527ZM39.5441 6.89655C39.5441 9.59882 33.7492 12.1379 26.5 12.1379C19.2509 12.1379 13.456 9.59882 13.456 6.89655C13.456 4.19428 19.2509 1.65517 26.5 1.65517C33.7492 1.65517 39.5441 4.19428 39.5441 6.89655Z" fill="#1D1D1F"/>
<ellipse cx="26.5002" cy="6.89729" rx="6.45337" ry="2.75862" fill="#FF6633"/>
<path fill-rule="evenodd" clip-rule="evenodd" d="M80.8658 32.0026H80.2357C80.2357 31.8616 80.0224 31.7172 79.5962 31.5696C78.5331 30.4147 78.0016 27.414 78.0016 22.567C77.9359 22.567 77.9034 22.423 77.9034 22.134C77.9034 22.0603 77.9359 22.0232 78.0016 22.0232L77.9034 21.4798V20.5025C77.9034 20.4353 77.9359 20.4021 78.0016 20.4021C77.9359 20.2612 77.9034 20.1503 77.9034 20.0695L78.0016 17.4717H78.1099C78.1099 17.3979 78.0741 17.3608 78.0016 17.3608C78.0933 16.3809 78.1658 15.8035 78.2183 15.6285C78.2183 15.5547 78.182 15.518 78.1099 15.518C78.1099 15.4438 78.1462 15.3365 78.2183 15.1959C78.2904 13.3702 78.3262 11.9233 78.3262 10.8557C78.3262 9.67415 78.1854 8.15349 77.9034 6.29413C78.2115 5.71668 78.5297 5.42773 78.8578 5.42773C79.2647 5.42773 79.5109 5.60931 79.5962 5.97158C80.1145 6.09291 80.5735 6.45518 80.9741 7.05969C80.9741 7.25392 81.0462 7.46867 81.1904 7.70392L81.3973 7.6031H81.5057C81.6435 8.58996 81.7121 9.13031 81.7121 9.22415H81.9289V9.0129C82.2305 9.0129 82.4075 9.51615 82.46 10.5235C82.5585 10.5235 82.6997 11.0303 82.8832 12.0437C82.9557 12.0437 82.9915 12.0808 82.9915 12.1546C82.9915 12.2284 82.9557 12.2655 82.8832 12.2655L83.1984 14.5412C83.1263 14.931 83.0901 15.2562 83.0901 15.518V16.7061C83.0901 16.8742 83.0572 17.0221 82.9915 17.1496C83.0572 17.2836 83.0901 17.3909 83.0901 17.4717C82.8341 20.1433 82.6242 21.4798 82.46 21.4798L82.5683 22.2449V24.1981C82.5683 24.3592 82.5325 24.5036 82.46 24.6311C82.5325 24.759 82.5683 24.903 82.5683 25.0645V25.1749C82.5683 25.3163 82.4962 25.3866 82.352 25.3866C82.352 25.3129 82.3158 25.2758 82.2437 25.2758V25.3866L82.46 25.7087V25.9305L82.0372 29.4043L81.5057 30.2703C81.2693 30.2703 81.056 30.3776 80.8658 30.5928C80.8658 30.6662 80.9016 30.7033 80.9741 30.7033L80.8658 31.7914V32.0026ZM88.1483 35.8399C91.5321 37.0743 93.8587 37.7255 95.1275 37.7923C95.1275 37.7923 98.6956 38.5945 100.352 37.626C103.338 35.8801 102.573 24.0452 102.573 24.0452L102.805 20.6621C102.839 18.2794 102.617 15.7274 102.141 13.0069L102.094 12.8807C101.808 12.1217 100.999 9.97777 101.091 9.51338C101.244 9.17555 101.382 9.01843 101.504 9.04374L101.813 9.10703C101.84 8.9691 101.89 8.90713 101.96 8.92153L102.481 9.02934L102.503 8.92066L103.205 9.17774L103.186 9.27682C102.979 9.23404 102.863 9.28511 102.834 9.43045L103.068 9.36542L103.164 9.38506L103.143 9.49374L102.878 9.76828C102.857 9.87347 102.939 9.99961 103.125 10.1476L103.337 10.1912C103.375 10 103.505 9.88002 103.729 9.83026L103.749 9.73162L104.164 9.81673C104.142 9.92846 104.522 10.3737 105.307 11.151C105.925 11.9223 106.499 13.0361 107.029 14.4944C107.54 16.6606 107.747 17.994 107.649 18.4942L107.542 18.4719C107.667 19.6757 107.75 21.0929 107.791 22.7244C107.693 22.8484 107.636 22.9492 107.621 23.0287C107.833 23.0719 107.889 23.71 107.787 24.9426L107.64 25.1276L107.51 27.987C107.271 28.4858 107.142 28.7879 107.121 28.8931L107.101 29.5569L107.197 29.5766L107.431 29.5115L107.388 29.7289L107.242 29.9144C107.312 29.9288 107.341 29.9725 107.327 30.0449C107.256 30.0305 107.213 30.0589 107.199 30.1313L107.407 30.1746C108.303 28.8737 108.951 27.8251 109.35 27.0286C109.35 26.8741 109.563 26.6227 109.99 26.2735L111.574 22.6984C111.502 22.6587 111.466 22.4033 111.466 21.9333C111.965 20.8526 112.283 20.3122 112.421 20.3122C112.939 19.1573 113.789 16.6969 114.97 12.9311L115.924 10.6553C115.852 10.5139 115.816 10.4065 115.816 10.3328C116.079 10.3328 116.466 10.0072 116.978 9.35596H117.411L117.509 9.78894H117.617C117.762 9.78894 117.834 9.71518 117.834 9.56721L118.887 9.67808H119.103C119.103 9.89326 119.172 10.0006 119.31 10.0006H119.419C119.419 9.78545 119.491 9.67808 119.635 9.67808H119.743C119.881 9.69815 119.95 9.77192 119.95 9.8998L120.166 9.78894H120.265V10.2219H120.481C120.619 10.2219 120.688 10.1482 120.688 10.0006V9.8998L120.59 9.67808L121.121 9.56721H121.328L121.22 9.78894V10.1115C121.364 10.1115 121.436 10.2555 121.436 10.5445H122.283C122.283 10.6182 122.246 10.6553 122.174 10.6553C122.207 11.0176 122.315 11.1987 122.499 11.1987V11.843C122.538 12.6155 122.748 13.1589 123.129 13.4745C123.129 13.5081 123.237 13.8708 123.454 14.5622L123.661 14.4513H123.769L124.192 16.0824C124.402 16.0824 124.507 16.2971 124.507 16.7271C124.435 16.7271 124.399 16.7642 124.399 16.8379L124.615 16.9488V16.8379C124.543 16.8379 124.507 16.8013 124.507 16.7271H124.832C124.838 17.1365 125.048 17.9322 125.462 19.1141C125.389 19.51 125.353 19.7985 125.353 19.9796L125.57 20.0905C125.57 20.0167 125.606 19.9796 125.678 19.9796C125.678 20.1276 125.888 20.5972 126.308 21.3894C128.493 21.1747 129.802 21.0673 130.235 21.0673V21.289H130.018L130.127 21.8228L128.011 22.4771L128.109 22.6984C128.109 23.041 127.794 23.2558 127.164 23.3431V23.4539H127.371V23.6757L127.164 23.9978V24.209C127.729 26.0418 128.188 27.6698 128.542 29.0931C128.542 29.2075 128.611 29.3515 128.749 29.5261V29.637C128.749 29.7107 128.713 29.7474 128.64 29.7474L129.596 32.5674C129.53 32.5674 129.497 32.6041 129.497 32.6778C129.799 32.6778 130.114 33.7956 130.442 36.0312C130.206 36.0312 130.032 36.2124 129.92 36.5746H129.28C129.28 36.7964 129.103 36.9072 128.749 36.9072C128.5 36.6589 127.863 36.3669 126.84 36.0312C126.84 35.9173 126.311 35.7021 125.255 35.387C125.255 35.3063 125.042 35.1247 124.615 34.8432V34.6214L125.353 34.7323H125.678C125.816 34.7323 125.885 34.662 125.885 34.5206C125.885 34.2923 125.216 32.5198 123.877 29.204C123.877 28.7605 123.522 27.6397 122.814 25.8405C121.456 26.277 119.973 26.6026 118.365 26.8174C118.365 26.7432 118.329 26.7065 118.257 26.7065C118.257 26.9212 118.044 27.0653 117.617 27.1395C116.417 27.4214 115.816 27.8208 115.816 28.3376C115.37 29.788 114.947 30.798 114.546 31.3689V31.701C114.757 31.701 114.862 31.7717 114.862 31.9127V32.0236L114.655 31.9127H114.438C114.229 32.4766 114.124 32.8389 114.124 33L113.907 32.8895C113.907 33.0777 113.694 33.2955 113.267 33.5438C113.267 33.6782 112.88 34.3294 112.106 35.4974L111.889 35.5983H111.683L111.259 35.2761H111.151C111.013 35.2962 110.945 35.37 110.945 35.4974C111.01 35.6314 111.043 35.7388 111.043 35.8196L110.836 35.9304C110.744 35.8567 110.567 35.8196 110.305 35.8196C110.305 36.0343 110.163 36.1417 109.881 36.1417L108.179 34.954C107.743 34.954 107.318 34.4306 106.904 33.3842C106.869 33.8572 106.757 34.5753 106.568 35.5383L106.401 36.3868C106.304 36.8809 106.188 37.1135 106.053 37.086L105.95 38.1737L105.826 38.8057C105.446 39.9877 104.981 40.7035 104.43 40.9527C104.284 41.0693 104.021 41.1579 103.646 41.2203C103.637 41.2228 103.63 41.2258 103.622 41.2287L103.608 41.2338L103.601 41.2364C103.443 41.3688 103.43 41.4111 103.415 41.4595C103.402 41.5015 103.387 41.5481 103.275 41.6624C103.194 41.6987 103.008 41.7174 102.721 41.72V41.7227C102.547 41.8012 102.326 41.8204 102.058 41.7798C101.736 42.1661 101.489 42.3988 101.314 42.4769L100.266 42.4651C99.3116 42.5795 98.1235 42.6008 96.702 42.5293C95.6087 41.9867 94.3135 41.5839 92.8161 41.3189C92.0713 40.7375 91.4084 40.4455 90.8265 40.4434C90.6865 40.1178 89.6904 39.4185 87.8386 38.3453C87.2208 37.9926 86.8488 37.8442 86.7226 37.9014C86.2563 37.3999 85.9329 37.1895 85.7525 37.2707L85.5823 36.8744C87.3492 37.5827 88.2989 37.907 88.4307 37.8472L88.3872 37.7464L87.5003 37.3091L87.4606 37.217L87.56 37.1725C87.5783 37.2157 88.141 37.4405 89.2485 37.8481C90.3551 38.2553 91.2893 38.46 92.0504 38.4622C92.6673 38.581 93.0631 38.6006 93.2372 38.522L93.3362 38.4775C93.4445 38.4291 93.4795 38.3361 93.442 38.199C90.8388 37.5295 89.4558 37.0044 89.2916 36.6238L89.1461 36.8102C88.9481 36.8997 88.7498 36.7137 88.5514 36.2528L88.3624 36.3379L88.4456 36.5313L88.3462 36.5762C88.2302 36.3061 88.0834 36.0564 87.9064 35.8281L88.1048 35.7391L88.1483 35.8399ZM107.272 30.3696L107.277 30.3631C107.273 30.3625 107.268 30.3618 107.264 30.3609C107.266 30.3624 107.268 30.364 107.269 30.3659L107.272 30.3696ZM69.6073 33.6691C69.6073 34.1723 70.2438 34.4608 71.5168 34.5346C72.7898 34.4744 73.4263 34.2225 73.4263 33.7799C74.4825 32.2553 75.0107 31.0607 75.0107 30.1948C75.5094 27.1801 75.8276 24.9384 75.9654 23.4679V23.3671L75.5426 23.5783V23.3671L75.6506 22.8237C75.5785 22.8237 75.5426 22.7866 75.5426 22.7128H75.6506C75.6506 19.2822 75.7918 16.8218 76.0738 15.3312V15.2304H75.8673C75.8673 15.5198 75.7589 15.6638 75.5426 15.6638C75.5426 15.7376 75.5785 15.845 75.6506 15.9859L75.5426 17.0736C75.5426 17.1474 75.5785 17.2548 75.6506 17.3957C75.6506 17.4896 75.5094 17.8152 75.2274 18.3726H75.119C75.119 17.6476 75.0141 17.2849 74.8042 17.2849C74.8042 17.1439 74.9091 17.0736 75.119 17.0736V16.3081C75.119 15.8384 75.1553 15.1169 75.2274 14.1432H75.0107C75.0107 14.3042 74.9782 14.4483 74.9125 14.5761L75.0107 14.7974C74.8272 14.8245 74.686 15.0026 74.5875 15.3312L74.6958 15.7747C74.6958 15.8419 74.66 15.8751 74.5875 15.8751C74.5875 16.1435 74.6237 16.3246 74.6958 16.4189C74.6237 16.4189 74.5188 16.6738 74.381 17.1845C74.4531 17.3049 74.4894 17.4494 74.4894 17.617V17.7183L74.2726 18.05L74.381 18.2617H74.2726C74.2726 18.5035 74.3089 18.6851 74.381 18.8055C74.3349 19.2219 74.23 19.5471 74.0662 19.7823L74.1647 20.0036H74.0662C74.0662 20.5811 73.9216 20.8696 73.6327 20.8696V20.9805L73.7411 21.6251C73.387 22.2763 73.2096 22.9642 73.2096 23.6892H73.0031C73.0031 23.6154 73.0389 23.5783 73.1114 23.5783C73.1114 23.3972 73.0752 23.1087 73.0031 22.7128L73.2096 22.3907L73.1114 22.169C73.2492 22.169 73.3179 21.9878 73.3179 21.6251L73.2096 21.4134C73.2821 21.4134 73.3904 21.2323 73.5346 20.8696C73.4625 20.7421 73.4263 20.5977 73.4263 20.4366C73.4263 20.3428 73.4954 19.9434 73.6327 19.2385V18.9164L73.5346 18.2617L73.6327 18.05L73.5346 17.5062L73.7411 16.9628C73.669 16.8353 73.6327 16.6908 73.6327 16.5298L73.8495 16.2077H73.6327L73.9578 13.821L73.8495 13.5993C74.3349 12.6932 74.9714 12.0791 75.7589 11.7565V11.5353C75.7589 11.3672 75.4407 11.2232 74.8042 11.1018C74.1481 11.5248 73.6528 12.1057 73.3179 12.8442V13.0555H73.5346V13.1663H73.3179L73.4263 13.3881C73.4263 13.6967 73.3542 13.9856 73.2096 14.254L73.3179 14.4657C73.1997 15.2444 73.059 15.714 72.8947 15.8751L73.0031 16.0968C72.931 16.0968 72.8947 16.1339 72.8947 16.2077V16.3081H73.0031V17.5062C73.0031 17.7213 73.0722 17.8287 73.2096 17.8287C73.0982 17.9902 72.9933 18.3154 72.8947 18.8055C72.8947 20.4702 72.7535 21.303 72.4715 21.303V21.5143H72.6784C72.6784 21.5885 72.6456 21.6251 72.5799 21.6251L72.6784 22.169C72.6059 22.169 72.501 22.2056 72.3632 22.2798C72.4353 22.7765 72.5078 23.1021 72.5799 23.2562C72.4421 23.3304 72.3337 23.3671 72.2548 23.3671V24.4447C72.1175 24.4447 72.0483 24.5892 72.0483 24.8777H71.94C71.8022 24.8777 71.6973 24.6259 71.6252 24.1226C71.763 23.6591 71.8679 23.0083 71.94 22.169C71.8679 22.0415 71.8316 21.897 71.8316 21.736C71.8316 21.2258 71.9042 20.8264 72.0483 20.5379C71.9763 20.4034 71.94 20.2961 71.94 20.2153C71.7105 20.2153 71.5334 21.0848 71.4089 22.8237C71.481 22.8237 71.5168 22.8568 71.5168 22.9241C70.9524 26.9858 70.3163 29.4091 69.6073 30.1948C69.4764 29.5431 69.3352 29.2175 69.1842 29.2175C67.9931 24.7496 65.9522 20.8655 64.3577 17.8308C63.5805 16.3515 62.9093 15.0741 62.4942 14.0292C62.068 13.505 61.8547 13.1794 61.8547 13.052H61.6478V13.1628L61.7464 13.3846C61.5625 13.1628 61.2805 13.052 60.9 13.052V12.9516H61.1163V12.7299C60.5519 12.7299 60.2699 12.5854 60.2699 12.2969L59.9721 12.3074C59.5391 12.6696 59.2209 12.8508 59.0174 12.8508C59.0174 12.502 58.8045 12.176 58.3779 11.8744C58.1676 11.9818 58.0627 12.0891 58.0627 12.1965C57.9842 12.1965 57.8758 12.1594 57.738 12.0856C57.6199 12.0856 57.5512 12.1594 57.5315 12.3074L57.6395 12.5191C57.5674 12.5191 57.5315 12.5557 57.5315 12.6295L57.3148 12.5191H57.2167C57.0917 12.5191 57.0196 12.5928 57 12.7399V12.8508L57.2167 13.6063C57.8988 13.6063 58.6761 15.8851 59.5489 20.444H59.4406C59.5131 21.142 59.6176 21.6823 59.7558 22.0651H59.6475C59.6475 22.3065 59.6833 22.4876 59.7558 22.6089L59.6475 23.1528C59.7196 23.7835 59.7558 24.1462 59.7558 24.24C59.6833 24.7502 59.6475 25.0392 59.6475 25.106C59.7917 25.6834 59.8642 26.3517 59.8642 27.1098C59.8642 27.7545 59.7917 28.8221 59.6475 30.3122C59.6475 31.7425 59.9329 32.7189 60.5037 33.2426V33.0209L60.3953 32.7996C60.4678 32.7996 60.5037 32.766 60.5037 32.6988V32.5879H60.2874V32.4775C60.3595 32.4775 60.4644 32.4404 60.6022 32.3666C60.9567 33.0445 61.1338 33.6254 61.1338 34.1086C61.8423 34.2295 62.1964 34.518 62.1964 34.975H62.3048C62.3048 34.7533 62.3376 34.5014 62.4033 34.2195H62.62C62.62 34.9379 62.8329 35.2971 63.2595 35.2971L64.4207 34.8641C64.3486 34.3469 64.3128 34.0584 64.3128 33.9982C64.3128 33.783 64.3849 33.6756 64.5291 33.6756L64.4207 33.1318V32.3666L64.3128 32.1554H64.4207C64.4207 32.0341 64.3849 31.6011 64.3128 30.856L64.1059 30.9568C64.2437 30.3794 64.3128 30.0202 64.3128 29.8792V29.2249L64.2142 29.0032C64.2799 29.0032 64.3128 28.9495 64.3128 28.8421C64.3128 28.1303 64.2799 27.4996 64.2142 26.9487C64.2578 26.6851 64.3956 26.7196 64.6272 27.0526C65.7428 29.7718 66.6254 31.3257 67.2751 31.715C67.8391 32.0576 68.1215 32.3828 68.1215 32.6918C68.6855 33.182 68.9679 33.4705 68.9679 33.5582C69.04 33.5582 69.0758 33.5211 69.0758 33.4473C69.2533 33.5949 69.4303 33.6691 69.6073 33.6691ZM97.3635 34.7842C97.3362 34.6415 97.1608 34.5778 96.8379 34.5935C96.8673 34.748 96.5747 34.9051 95.9599 35.0662C95.6707 34.7227 95.3337 34.4909 94.948 34.3709C94.931 34.2819 94.8171 34.2059 94.6059 34.1431L94.5189 34.161L94.5564 34.3569C94.021 33.958 93.745 33.7145 93.728 33.6254C92.4644 31.7918 91.7485 30.4383 91.5809 29.5641C91.3377 28.6126 91.0724 27.7335 90.7848 26.9265L90.8446 26.72L90.3207 25.0283L90.4167 25.0091L90.2832 24.8323L89.9508 23.1017L89.6804 22.165L89.2969 22.2423C89.3267 22.3968 89.2627 22.7399 89.1053 23.2719L89.2969 23.2335C89.2491 23.9904 89.2422 24.4578 89.2768 24.6363C89.3348 24.6245 89.3702 24.6512 89.3826 24.7171C89.1791 24.7577 89.1407 25.2317 89.2666 26.1387L89.4547 26.6013C89.4223 26.9658 89.3463 27.2464 89.2273 27.4437C89.2397 27.5087 89.2781 27.5354 89.3421 27.5223C89.3899 28.4637 89.3758 29.0652 89.2994 29.3279C89.3805 29.4353 89.4274 29.5244 89.4415 29.5955C89.2542 30.004 89.1441 30.9555 89.1113 32.45C89.0486 33.13 88.985 33.4761 88.921 33.4888L88.6424 33.5447C88.5051 34.3072 88.2909 34.7179 88.0004 34.776C87.8584 34.539 87.741 34.4298 87.648 34.4486L87.4561 34.487L87.0026 34.6712C86.9476 34.3857 86.6293 34.2522 86.0474 34.2701L86.0508 33.7695C85.989 33.4482 85.8337 33.3129 85.5837 33.3631L85.472 32.7835C85.4118 32.4679 85.2245 32.3422 84.911 32.4055C84.6324 30.9547 84.6738 28.4515 85.0351 24.896C85.0227 24.8301 84.9843 24.8044 84.9204 24.817L84.9186 23.8171L85.1294 23.8769L85.018 23.2968C85.2326 23.2536 85.3026 22.9402 85.2267 22.3562L85.0982 21.6875C85.2433 21.6583 85.2936 21.4165 85.2488 20.9626L85.0863 20.5876C85.1076 20.386 85.1507 20.2786 85.2143 20.2651C85.2019 20.2 85.1635 20.1734 85.0995 20.1865C85.062 19.6444 85.0722 19.1791 85.1307 18.7907C85.0428 18.679 84.992 18.5873 84.9779 18.5161C85.0889 18.4319 85.1759 18.3835 85.2399 18.3708C85.1452 18.2233 85.0223 17.9143 84.8721 17.4442C84.9532 17.4276 85.0411 17.2094 85.1354 16.789C85.0475 16.6773 84.9976 16.5887 84.9848 16.5228L85.0808 16.5036L84.9472 16.3268C85.0121 14.622 84.9434 12.7395 84.7412 10.6806C84.9438 10.5104 85.1819 10.3978 85.4549 10.3428L85.7339 10.2865C85.7979 10.2739 85.8363 10.3 85.8486 10.3655L86.0218 10.2289C86.7189 10.4965 87.1161 10.8827 87.2129 11.3882L87.3857 11.2515L87.6647 11.1952L87.6839 11.2939L87.6323 11.4982L88.5652 11.3109L89.7136 11.6819L89.8369 11.8521L89.5579 11.908L89.5767 12.0058C89.8335 12.6522 90.2187 13.3064 90.7324 13.9694C91.5416 15.1339 92.0877 16.4538 92.3705 17.9287L92.629 19.2756C92.821 19.2368 93.2007 20.1918 93.7676 22.1402L93.8602 22.622C93.873 22.6871 93.847 22.7263 93.783 22.739L93.9152 22.9075C93.972 23.2047 93.94 23.7114 93.8175 24.4273C94.1473 24.7935 94.3644 25.2469 94.4681 25.7882L94.5061 25.9841L94.6887 25.9475C94.8166 25.9217 94.8939 25.4739 94.9199 24.6045L95.0159 24.5853L94.8823 24.4081L94.8273 24.1226C95.0824 23.5958 95.1451 22.052 95.0154 19.4904C95.1242 19.1783 95.2002 18.5672 95.2428 17.6572C95.5329 16.3386 95.8238 15.4805 96.1156 15.0824L96.2116 15.0632L96.2492 15.2596L96.1894 15.4657L96.3998 15.5255L96.4957 15.5063L96.477 15.408L96.285 15.4465L96.3452 15.2404L96.3264 15.1418C96.3136 15.0768 96.2756 15.0501 96.2116 15.0632C96.2539 14.9371 96.2611 14.8031 96.2338 14.6608L96.4168 14.6237L96.4219 15.1226C96.6254 15.0816 96.7952 14.6154 96.9322 13.7233L96.913 13.6251L97.1152 13.6866L97.0964 13.5884C97.0324 13.6015 96.994 13.5749 96.9812 13.5098C97.0802 13.4898 97.1962 13.402 97.3289 13.2453C97.3404 13.3047 97.3754 13.3287 97.4334 13.3169C97.7278 12.461 98.0609 11.9957 98.4329 11.9211L98.5289 11.9019L98.6023 12.2855L97.9419 13.4186L97.7397 13.3571L97.4522 13.4151L97.471 13.5133L97.8459 13.4378L97.8835 13.6342C97.5175 14.0842 97.3421 14.3514 97.3583 14.4343C97.1484 15.3845 96.9049 17.4961 96.628 20.7688L96.6468 20.867L96.7338 20.8495C96.9812 20.1887 97.1088 19.3293 97.1173 18.2713L97.4253 16.8109L97.5296 16.7897C97.5415 16.5224 97.5968 16.379 97.6963 16.3591L97.7918 16.3395C97.8226 16.5001 97.9177 16.6481 98.0764 16.7829L98.0996 16.9044C98.1428 16.8788 98.1804 16.8628 98.2124 16.8563L98.2316 16.9545C98.1365 17.4673 98.0644 18.112 98.014 18.8876L98.11 18.8684C98.2555 18.8396 98.3459 18.2901 98.3822 17.2207C98.7597 17.1448 98.9918 16.4988 99.0784 15.2837L99.2704 15.2448C99.2964 15.3819 99.2516 15.8231 99.1351 16.5691C99.2921 16.5372 99.4094 16.6463 99.4875 16.8964L99.4845 17.3975C99.5848 17.5747 99.6671 17.6572 99.7311 17.6441L99.784 19.4306C99.822 19.6265 99.9337 19.706 100.12 19.6689L100.137 19.7579C100.182 22.0398 100.105 24.6826 99.903 27.6877C99.6948 28.8042 99.2891 30.4169 98.6863 32.5264C98.2222 33.8179 97.9581 34.47 97.8941 34.4831L97.3635 34.7842ZM97.7009 17.2556L97.6485 16.9827C97.6817 16.9827 97.7153 16.9853 97.7494 16.9904L97.7969 17.2364L97.7009 17.2556ZM97.6777 16.102L97.7737 16.0828C97.737 15.893 97.7801 15.7856 97.9021 15.7607L97.8453 15.4665L97.7583 15.484C97.7963 15.68 97.7191 15.7978 97.5271 15.8362C97.615 15.9484 97.6653 16.037 97.6777 16.102ZM71.8193 20.032H71.9276C71.9276 19.737 71.8918 19.448 71.8193 19.1661L71.9276 18.6222V18.5218H71.7211C71.7211 18.7165 71.6486 18.9312 71.5044 19.1661L71.6128 19.3878C71.5407 19.3878 71.5044 19.4244 71.5044 19.4986V19.7099C71.6162 19.9246 71.7211 20.032 71.8193 20.032ZM115.018 17.4062C115.169 17.3726 115.31 17.1915 115.441 16.8624C115.375 16.7349 115.343 16.5904 115.343 16.4294C115.507 16.4294 115.825 15.8148 116.297 14.5866L116.189 14.3649V14.254C116.576 13.8045 116.786 13.1903 116.819 12.4112H116.396V12.633H116.612C115.549 14.9358 115.018 16.5267 115.018 17.4062ZM95.906 28.4166C95.9069 28.7684 95.8429 29.1115 95.7145 29.4462C95.604 29.4685 95.528 29.4187 95.4862 29.2974L95.3941 28.816L95.4901 28.7968L95.9073 26.9156C95.8949 26.8505 95.8446 26.7619 95.7567 26.6498C95.8557 26.6297 95.9679 26.5393 96.0937 26.3783L96.1129 26.476L95.9845 26.7986L96.022 26.9946L96.2051 26.9579L96.1505 26.672L96.2464 26.6533L96.3556 27.2237C96.1778 27.9945 96.0276 28.3921 95.906 28.4166ZM118.004 23.3885C118.365 23.3885 119.533 23.1 121.508 22.5225V22.4121C121.508 22.2571 121.012 20.7033 120.021 17.7493V17.6489C119.687 18.0984 119.333 18.8937 118.959 20.0355C118.801 21.0355 118.519 22.0088 118.112 22.9555H118.004V23.3885ZM127.491 28.7649V28.8758C127.281 28.8758 126.963 28.043 126.536 26.3783C126.818 26.3783 126.959 26.6332 126.959 27.1438H127.176L127.382 27.033C127.382 27.1067 127.419 27.1438 127.491 27.1438L127.382 27.6873C127.455 28.3184 127.491 28.6776 127.491 28.7649ZM96.269 24.2854C96.2225 24.0414 96.3117 23.6591 96.5378 23.1384C96.5809 23.0183 96.5822 22.8512 96.5412 22.6373L96.5054 22.4501L96.4094 22.4693C96.3279 22.4858 96.2277 22.969 96.1082 23.9192L95.8207 23.9773L95.8941 24.3605L95.9901 24.3413L96.0384 24.3061C96.0358 24.5149 95.9634 24.9652 95.8207 25.6568L95.836 26.2556L95.8531 26.3451L95.9491 26.3255C96.0903 25.0191 96.1569 24.3417 96.1475 24.2941L96.1361 24.2348L96.165 24.2138C96.176 24.2727 96.211 24.2968 96.269 24.2854Z" fill="#1D1D1F"/>
<path fill-rule="evenodd" clip-rule="evenodd" d="M149.318 35.0742L147.183 34.8568L146.976 34.9655C146.106 34.7485 145.467 34.4292 145.059 34.008C144.136 33.2503 143.675 32.6844 143.675 32.309C143.675 32.2435 143.603 31.9572 143.458 31.4499V31.3515L143.566 31.134C143.474 31.134 143.264 30.8511 142.934 30.2847V29.9684C142.934 29.8961 143.181 29.682 143.675 29.3263L143.566 28.7934C144.812 27.8718 145.665 27.4108 146.126 27.4108V27.5195C146.126 27.8025 145.876 28.3688 145.375 29.218V29.3263C145.526 29.3263 145.918 29.4321 146.551 29.6427L148.359 29.4351V29.5438C148.834 29.4714 149.295 29.3627 149.743 29.218L150.484 29.3263C151.511 29.1624 152.79 28.5233 154.318 27.4108C154.753 27.0486 155.178 26.4823 155.593 25.7123C155.949 25.3369 156.126 24.9811 156.126 24.6456C152.18 23.7963 150.052 23.2629 149.743 23.0459C149.743 23.1902 149.67 23.2629 149.525 23.2629C147.029 22.6637 145.576 22.0978 145.167 21.5644C144.864 21.5644 144.331 21.2091 143.566 20.4977C143.382 20.478 142.993 20.017 142.4 19.1151C142.229 19.1151 142.051 18.8685 141.867 18.3741C141.583 18.3741 141.442 18.0188 141.442 17.3078C141.442 16.123 141.794 15.0922 142.499 14.2169C142.927 13.4926 143.425 12.8903 143.991 12.4096C144.327 12.074 144.541 11.7213 144.634 11.3527C145.72 10.5694 146.36 10.1777 146.551 10.1777C148.152 10.3421 149.321 10.6251 150.059 11.0266C151.693 11.8959 152.51 12.7122 152.51 13.4759V14.3256H152.292V14.4339L152.401 14.6513L151.867 14.7502C151.637 14.7502 151.106 14.4673 150.276 13.9005C149.051 14.4009 148.307 14.7566 148.043 14.9677C147.984 15.3033 147.522 15.7279 146.659 16.2411C146.659 16.3597 146.304 16.7154 145.592 17.3078C145.164 17.9529 144.95 18.3416 144.95 18.4734C146.373 19.1117 148.715 19.7503 151.976 20.3894C154.928 21.1004 156.736 21.8114 157.401 22.5224C159.536 23.5823 160.603 24.3956 160.603 24.9615H160.386C160.386 24.777 159.997 24.4251 159.22 23.9046H159.002V24.0035C159.325 24.8728 159.822 25.4422 160.494 25.7123C160.494 25.8043 160.672 26.1236 161.028 26.6698C160.883 26.6899 160.81 26.7589 160.81 26.8774L160.919 27.8354C160.919 28.3756 160.494 28.7998 159.645 29.1097C159.645 29.34 159.325 29.6953 158.686 30.176C158.686 30.5317 158.116 31.0287 156.977 31.6674C156.977 31.8052 156.515 32.2302 155.593 32.9412C155.382 33.0269 155.276 33.1356 155.276 33.267H155.168L154.96 33.1587C154.96 33.6719 154.285 34.1693 152.935 34.6496C152.935 34.4326 152.862 34.3239 152.717 34.3239C152.487 34.6462 152.098 34.8602 151.551 34.9655L150.909 34.8568H150.701C150.543 34.8568 150.402 34.8932 150.276 34.9655L150.059 34.8568C149.934 34.9296 149.792 34.9655 149.634 34.9655L149.426 34.8568L149.318 35.0742ZM169.863 33.8992H169.645C168.914 33.8992 168.417 33.7939 168.153 33.5833L167.728 33.6921C167.616 33.6921 167.405 33.5504 167.096 33.267L166.878 33.3659C166.384 33.2537 165.923 32.8291 165.495 32.0916L165.278 32.2003H165.07C163.581 30.9761 162.836 30.1597 162.836 29.7514C161.631 27.2627 161.028 24.4251 161.028 21.2387C160.975 21.2387 160.867 20.2113 160.702 18.1575H160.81C160.666 17.795 160.593 17.5484 160.593 17.4166C160.646 16.9885 160.718 16.7745 160.81 16.7745L160.168 13.6933C160.3 13.6933 160.409 13.374 160.494 12.7354C160.778 12.7354 160.919 12.663 160.919 12.5183V12.4096H161.028L161.344 12.6271C161.496 12.6271 161.707 12.413 161.977 11.985C162.056 11.985 162.164 11.9486 162.303 11.8763V12.0937L162.836 11.985C162.836 12.2024 162.869 12.3107 162.935 12.3107C163.034 12.2384 163.212 12.2024 163.469 12.2024C163.469 12.3664 163.683 12.4717 164.111 12.5183V12.6271L164.003 12.8342C164.148 12.8342 164.22 12.9066 164.22 13.0513H164.319C164.391 13.0513 164.678 12.9789 165.179 12.8342H165.495V13.5846L165.278 13.9005L165.603 14.118L165.278 15.7082C165.304 15.8529 165.376 15.9252 165.495 15.9252C165.422 16.7548 165.386 17.3575 165.386 17.7325V17.8412L165.495 18.8976H165.386L165.495 19.1151V19.2238C165.495 20.3629 165.6 22.4171 165.811 25.3861H165.702C165.775 25.5509 165.92 26.1202 166.137 27.0949L166.028 27.6282C166.167 27.8585 166.236 28.0691 166.236 28.26L166.137 28.4775C166.486 28.4775 166.661 28.8328 166.661 29.5438C166.779 29.5438 166.924 29.7544 167.096 30.176C167.445 30.176 168.295 29.3263 169.645 27.6282C170.429 26.3047 171.21 24.033 171.987 20.814V19.3223L171.879 18.5817H171.987L171.879 18.3741C171.879 18.2102 171.915 18.0651 171.987 17.9401C171.777 15.1616 171.671 13.496 171.671 12.943C171.928 12.6005 172.248 12.3172 172.63 12.0937V11.7774H172.837V11.985H173.153C173.516 11.491 173.835 11.244 174.112 11.244L174.221 11.4516L174.438 11.3527H174.646V11.6686H174.754L175.288 11.5604L175.93 11.985V12.3107H176.355V12.0937C176.494 12.166 176.599 12.2024 176.672 12.2024C176.81 12.1297 176.915 12.0937 176.988 12.0937C177.488 12.5543 177.738 13.1206 177.738 13.7918C177.666 13.7918 177.63 13.8282 177.63 13.9005C177.768 13.9271 177.837 13.9994 177.837 14.118C177.627 14.2828 177.521 14.5293 177.521 14.8589H177.413L177.205 14.2169C177.06 14.243 176.988 14.3153 176.988 14.4339V15.9252C176.988 16.5968 176.951 17.4131 176.879 18.3741L176.988 18.8976C176.546 21.7682 176.122 23.6846 175.713 24.6456C175.64 24.6456 175.604 24.6819 175.604 24.7543V25.7123L175.713 26.7691C175.429 26.7691 175.288 27.0555 175.288 27.6282H175.179C175.179 27.8585 175.321 28.6384 175.604 29.9684H175.495L175.604 30.176V30.7094C175.604 30.8673 175.568 31.009 175.495 31.134C175.568 31.2723 175.604 31.3776 175.604 31.4499C175.446 31.4499 175.268 31.0976 175.07 30.3935H174.971C174.971 30.459 174.935 30.4919 174.863 30.4919C175.001 31.2427 175.179 31.9897 175.397 32.7336C175.324 32.8723 175.288 32.9776 175.288 33.05C175.176 33.05 174.929 32.3056 174.547 30.8181H174.438L174.329 31.0253V31.134H174.547V31.7757H174.754C174.754 31.8484 174.718 31.8844 174.646 31.8844L174.754 32.0916V32.4079L174.547 32.309C174.547 32.3749 174.511 32.4079 174.438 32.4079C174.221 31.9863 173.97 31.2063 173.687 30.0673H173.48C173.381 30.0673 173.239 30.3866 173.055 31.0253C172.916 31.0253 172.56 31.4169 171.987 32.2003L172.096 32.4079C171.905 32.6446 171.408 32.8586 170.604 33.05C170.11 33.4583 169.863 33.7413 169.863 33.8992ZM176.138 35.6076H175.822C175.749 35.0875 175.676 34.7682 175.604 34.6496C175.676 34.5315 175.713 34.3538 175.713 34.1167H175.93V34.5409L175.822 34.7485C175.96 34.8208 176.065 34.8568 176.138 34.8568V34.9655L175.93 35.2819C176.068 35.308 176.138 35.3807 176.138 35.4989V35.6076ZM201.08 37.8189L200.655 37.6118C200.517 37.6777 200.408 37.7106 200.329 37.7106L199.904 37.6118C199.766 37.6777 199.661 37.7106 199.588 37.7106C199.588 37.5266 199.338 37.3849 198.837 37.286C198.679 36.8708 198.395 36.5189 197.987 36.2291C197.565 35.4655 197.246 34.4022 197.029 33.0393L197.137 32.8218C197.065 32.6836 197.029 32.5783 197.029 32.5059H197.137C197.012 32.2756 196.87 31.2817 196.712 29.5232H196.821C196.689 29.0956 196.334 25.7641 195.754 19.5294C195.681 19.5294 195.576 18.9601 195.437 17.8211C195.437 17.7487 195.474 17.643 195.546 17.5047C195.546 16.7676 195.118 15.9509 194.262 15.0558C194.262 15.0092 194.084 14.5122 193.728 13.5641C193.807 13.2482 194.057 13.0016 194.479 12.824H194.588V13.0311C195.088 12.8929 195.371 12.824 195.437 12.824H195.546V13.4656H195.754L195.645 13.6728V13.7815C195.79 13.7815 195.862 13.8179 195.862 13.8903L196.712 13.3569H196.821V13.4656C196.749 13.597 196.712 13.7023 196.712 13.7815C196.785 13.7815 196.821 13.8179 196.821 13.8903C196.959 13.8179 197.065 13.7815 197.137 13.7815C197.756 13.8213 198.395 14.3872 199.054 15.4805C199.054 15.9479 199.301 16.6589 199.796 17.6135C200.296 22.1628 200.547 24.6451 200.547 25.0599H200.655C202.269 24.8425 203.475 24.7337 204.272 24.7337H204.697C205.336 24.7337 205.656 24.3455 205.656 23.5686H205.764L205.656 23.3511V23.2527C206.011 23.2527 206.367 21.1222 206.723 16.8627C206.578 16.8627 206.505 16.7937 206.505 16.6555V16.0134C206.888 16.0134 207.171 15.9081 207.355 15.6975H207.573L207.672 16.2309C207.605 16.2309 207.573 16.2638 207.573 16.3293L207.78 16.438C207.78 16.3657 207.817 16.3293 207.889 16.3293L207.78 16.1221V16.0134C208.248 16.0134 208.531 15.7998 208.63 15.3717H208.848C208.848 15.4505 208.884 15.5592 208.956 15.6975L209.164 15.5892H209.272C209.272 15.8259 209.308 16.0036 209.381 16.1221L209.589 16.0134C209.734 16.0335 209.806 16.1059 209.806 16.2309V16.3293H209.589V16.438H209.915L210.013 16.2309C209.948 16.0922 209.915 15.9843 209.915 15.9051H210.122C210.551 16.2801 210.765 16.5994 210.765 16.8627H211.081L211.298 16.7539L211.19 16.5468C211.209 16.4021 211.279 16.3293 211.397 16.3293C211.924 16.3293 212.211 16.438 212.257 16.6555V16.8627C212.257 17.0078 212.148 17.0801 211.931 17.0801C212.214 17.8177 212.356 18.2782 212.356 18.4627C212.006 19.8719 211.832 21.6427 211.832 23.7762L212.039 23.8849C212.039 23.8121 212.075 23.7762 212.148 23.7762C212.148 23.9209 212.184 23.9928 212.257 23.9928L212.682 23.7762V23.8849C212.682 24.0955 212.398 24.2368 211.832 24.3091V24.9512H212.573L213.957 24.6348C213.957 24.7012 213.993 24.7337 214.065 24.7337C214.065 24.5959 214.349 24.4906 214.915 24.4178V24.5266C214.915 24.6186 214.454 24.8656 213.532 25.2671C213.532 25.55 212.893 25.8694 211.615 26.2251V26.4421L212.148 26.3338C212.221 26.3338 212.257 26.3698 212.257 26.4421C212.395 26.3698 212.501 26.3338 212.573 26.3338H212.79V26.4421C211.934 26.5474 211.506 26.6891 211.506 26.8667C211.506 27.0778 211.469 27.1831 211.397 27.1831L211.506 27.4001C211.367 27.9994 211.298 28.3516 211.298 28.4569L211.397 29.099C211.397 29.751 211.186 31.3801 210.765 33.9874H210.547V33.7802H210.449V35.1624H210.122L209.697 34.8465C209.697 34.9651 209.52 35.2844 209.164 35.8045C209.164 36.5617 208.953 36.9864 208.531 37.0788C208.531 37.2894 208.176 37.3947 207.464 37.3947H207.355C207.355 37.1841 207.25 37.0788 207.039 37.0788H206.93V36.2291C206.93 36.0648 206.894 35.9231 206.822 35.8045C206.822 35.7322 206.858 35.6958 206.93 35.6958C206.93 35.5511 206.894 35.4783 206.822 35.4783C206.986 32.7854 207.128 31.4396 207.247 31.4396L207.148 31.2222C207.286 30.7346 207.355 30.3104 207.355 29.9483V29.099L207.464 28.5657C207.293 28.4274 207.151 28.3585 207.039 28.3585C205.991 28.5691 205.28 28.7433 204.904 28.8816V29.5232C204.72 29.5232 204.473 29.9149 204.163 30.6987L203.205 32.8218C203.066 32.8942 202.961 32.9305 202.889 32.9305V33.7802C202.889 33.951 202.711 34.2704 202.355 34.7378C202.355 35.159 202.283 35.37 202.138 35.37L202.246 35.5871C201.679 36.1928 201.396 36.5485 201.396 36.6542V37.1871L201.505 37.3947C201.268 37.3947 201.126 37.536 201.08 37.8189ZM206.189 23.7787C206.525 22.706 206.772 22.1363 206.93 22.0704C206.858 21.7874 206.753 21.5404 206.614 21.3298L206.822 21.0139H206.723C206.604 21.0139 206.459 21.2609 206.288 21.7545L206.397 22.2878C206.364 22.5708 206.258 22.7125 206.081 22.7125V22.8208L206.189 23.0288H205.972V23.5617C205.998 23.7068 206.071 23.7787 206.189 23.7787ZM208.848 32.4995C209.019 32.4995 209.124 32.1434 209.164 31.4324C209.098 31.2945 209.065 31.1892 209.065 31.1165H209.272V30.6923C209.272 30.5471 209.203 30.4748 209.065 30.4748L209.164 29.9414V28.8846C209.164 28.8122 209.2 28.7759 209.272 28.7759L209.164 28.5588C209.164 28.4865 209.2 28.3808 209.272 28.2429L209.065 27.2849C209.131 27.2849 209.164 27.2486 209.164 27.1762H208.956V27.927C208.956 28.085 208.92 28.2262 208.848 28.3512C208.848 28.424 208.884 28.4599 208.956 28.4599L208.848 28.9835V29.2005L208.956 29.9414H208.848L208.956 30.1589V30.3661C208.956 30.5108 208.884 30.5835 208.739 30.5835C208.884 30.8138 208.956 31.0278 208.956 31.2252V31.7487L208.848 32.4995ZM208.106 33.4575C208.245 32.9241 208.314 32.6048 208.314 32.4995C208.314 32.4272 208.277 32.3908 208.205 32.3908L208.314 31.8574V30.6922L208.205 29.4081H208.314L208.205 29.2005V28.4599C208.205 28.3876 208.241 28.3512 208.314 28.3512C208.241 28.2592 208.205 28.0088 208.205 27.6008C208.067 27.6274 207.998 27.6997 207.998 27.8183V28.5588C207.998 28.9672 207.961 29.2176 207.889 29.3092C207.961 29.6915 207.998 30.0104 207.998 30.2676V33.4575H208.106ZM203.314 30.7907C203.314 30.5604 203.561 30.0664 204.055 29.3092L204.588 28.2429V28.0255H204.48C204.071 28.4801 203.752 29.0494 203.521 29.7343C203.475 29.7343 203.333 29.9119 203.096 30.2676V30.7907H203.314ZM200.863 32.4995C201.285 32.0381 202.065 30.8665 203.205 28.9835C203.205 28.9175 203.241 28.8846 203.314 28.8846V29.2005H203.521C203.521 28.9043 203.594 28.549 203.738 28.1342H203.63V28.2429C203.557 28.2429 203.521 28.2065 203.521 28.1342C202.355 28.5618 201.683 28.7758 201.505 28.7758C201.024 28.5652 200.741 28.4599 200.655 28.4599V28.7758C200.655 28.9338 200.688 29.0755 200.754 29.2005C200.754 29.2728 200.721 29.3092 200.655 29.3092C200.721 29.632 200.79 30.6952 200.863 32.4995ZM217.666 37.0925H217.033C217.033 36.9543 216.819 36.8126 216.391 36.6679C215.323 35.5353 214.79 32.5924 214.79 27.8388C214.724 27.8388 214.691 27.6976 214.691 27.4142C214.691 27.3419 214.724 27.3055 214.79 27.3055L214.691 26.7726V25.8141C214.691 25.7486 214.724 25.7157 214.79 25.7157C214.724 25.5774 214.691 25.4687 214.691 25.3895L214.79 22.8417H214.899C214.899 22.7694 214.863 22.733 214.79 22.733C214.882 21.772 214.955 21.2057 215.007 21.0345C215.007 20.9617 214.971 20.9258 214.899 20.9258C214.899 20.8534 214.935 20.7477 215.007 20.6099C215.08 18.8193 215.116 17.4003 215.116 16.3533C215.116 15.1945 214.974 13.7032 214.691 11.8797C215.001 11.3134 215.32 11.03 215.65 11.03C216.058 11.03 216.305 11.2081 216.391 11.5633C216.911 11.6823 217.373 12.0376 217.774 12.6305C217.774 12.821 217.847 13.0316 217.992 13.2623L218.199 13.1634H218.308C218.446 14.1312 218.516 14.6616 218.516 14.7536H218.733V14.546C219.036 14.546 219.214 15.0396 219.267 16.0275C219.366 16.0275 219.507 16.5245 219.692 17.5184C219.764 17.5184 219.8 17.5548 219.8 17.6272C219.8 17.6995 219.764 17.7359 219.692 17.7359L220.008 19.9678C219.935 20.35 219.899 20.6689 219.899 20.9258V22.0909C219.899 22.2557 219.866 22.4008 219.8 22.5258C219.866 22.6572 219.899 22.7625 219.899 22.8417C219.642 25.4619 219.432 26.7726 219.267 26.7726L219.375 27.5229V29.4385C219.375 29.5964 219.339 29.7381 219.267 29.8631C219.339 29.9885 219.375 30.1298 219.375 30.2882V30.3965C219.375 30.5352 219.303 30.6041 219.158 30.6041C219.158 30.5317 219.122 30.4953 219.049 30.4953V30.6041L219.267 30.92V31.1374L218.842 34.5447L218.308 35.3936C218.071 35.3936 217.857 35.4989 217.666 35.7099C217.666 35.7822 217.702 35.8182 217.774 35.8182L217.666 36.8853V37.0925ZM183.323 15.2613C184.309 14.8949 185.235 14.5884 186.101 14.3423H186.195V14.5221C185.886 14.5396 185.731 14.6025 185.731 14.7117C185.175 14.7459 184.897 14.8692 184.897 15.0811H184.622C184.415 15.0811 184.201 15.1727 183.977 15.3559H183.323V15.2613ZM193.904 29.3131H193.999C193.999 29.1812 193.907 28.995 193.724 28.7544V28.4796L193.81 28.2904L193.259 27.3628C192.239 26.3312 191.064 25.4062 189.734 24.5873C188.445 23.8254 187.797 23.3926 187.791 23.2899C187.281 23.072 185.923 22.2416 183.716 20.7982C182.507 20.1163 181.675 19.4062 181.222 18.6669C181.251 18.4208 181.343 18.2975 181.497 18.2975C181.497 17.8853 183.386 17.2175 184.992 16.5587C185.92 16.3066 186.384 16.0917 186.384 15.9141C187.984 15.3816 188.878 15.0409 189.067 14.8919C189.996 14.6856 190.46 14.531 190.46 14.4279C190.597 14.4279 190.721 14.6458 190.829 15.0811L190.735 15.2613C190.735 15.3876 190.826 15.4501 191.01 15.4501V15.5447C190.826 15.5447 190.735 15.6367 190.735 15.8199C190.798 16.129 190.984 16.5301 191.294 17.0228H191.569L191.474 16.834H191.75C192.019 16.0318 192.237 15.6307 192.403 15.6307V15.4501C192.403 15.1466 192.494 14.8375 192.678 14.5221C192.615 14.4138 192.583 14.2901 192.583 14.1531C192.555 13.9412 192.062 13.5401 191.104 12.9502L189.531 12.4862H189.437C189.013 12.4862 188.551 12.5804 188.053 12.7696C186.315 13.136 185.204 13.5054 184.716 13.8783L184.527 13.7837H184.347C184.031 14.0298 183.63 14.1843 183.143 14.2477L179.902 15.7253C178.566 16.4128 177.824 17.1233 177.675 17.8562C177.675 17.9478 177.829 18.3489 178.139 19.059L178.044 19.2482C178.044 19.3 178.168 19.5748 178.414 20.0731C178.414 20.2392 178.569 20.4254 178.879 20.6317C178.879 20.8093 179.156 21.1787 179.712 21.7399C180.406 22.1581 180.93 22.5592 181.286 22.9427C181.905 23.0515 182.215 23.2064 182.215 23.4068C183.43 24.0715 184.109 24.5039 184.252 24.7046C185.817 25.5693 187.422 26.5859 189.067 27.7549C190.116 28.293 190.641 28.6654 190.641 28.8717C190.004 29.3811 188.121 29.7826 184.992 30.0746C184.992 30.0116 184.96 29.98 184.897 29.98C184.788 30.0429 184.665 30.0746 184.527 30.0746H180.916C179.93 30.0746 179.437 30.444 179.437 31.1828V31.458C179.672 31.458 179.827 31.6759 179.902 32.1108L180.452 32.4807C180.716 32.6634 180.902 32.7555 181.011 32.7555C181.36 33.0016 181.607 33.1245 181.75 33.1245C181.75 33.4399 182.338 33.6578 183.513 33.7781V33.8637L183.418 34.0525C183.922 34.0525 184.232 34.1128 184.347 34.2331H184.622L185.181 34.1471L185.361 34.2331C186.25 34.1586 187.02 34.0675 187.674 33.9583C187.674 34.0212 187.706 34.0525 187.769 34.0525C188.99 33.9039 190.225 33.5945 191.474 33.1245C191.87 33.0333 192.211 32.6322 192.497 31.9221H193.142L193.331 31.2774V30.994C193.331 30.8506 194.094 29.7197 193.904 29.3131Z" fill="#1D1D1F"/>
</svg>
