<svg width="16" height="21" viewBox="0 0 16 21" fill="none" xmlns="http://www.w3.org/2000/svg">
<path d="M13.168 11.1979C13.1698 13.0131 14.1925 14.6525 15.766 15.3605C15.4644 16.4026 15.0083 17.3896 14.4141 18.2858C13.6186 19.5517 12.7845 20.7889 11.4592 20.8118C10.1726 20.8434 9.73948 20.0065 8.26435 20.0065C6.77451 20.0065 6.31284 20.7889 5.07866 20.8434C3.81781 20.893 2.85309 19.4925 2.02908 18.2381C0.380133 15.6777 -0.903708 11.0212 0.81697 7.85316C1.62627 6.30928 3.13634 5.32907 4.79816 5.27175C6.05993 5.24499 7.23249 6.17935 8.00869 6.17935C8.77016 6.17935 10.2186 5.06156 11.7131 5.2278C12.418 5.25374 13.107 5.45216 13.7242 5.80692C14.3414 6.16168 14.8692 6.66277 15.2648 7.26943C14.6278 7.6908 14.1023 8.27092 13.7361 8.95702C13.3699 9.64312 13.1746 10.4134 13.168 11.1979ZM11.3765 3.62182C10.6297 4.63929 9.49853 5.22398 8.30665 5.2106C8.22789 3.94681 8.61599 2.69938 9.39185 1.72254C10.1527 0.760997 11.243 0.143515 12.4332 0C12.5277 1.30233 12.1505 2.59437 11.3755 3.62277L11.3765 3.62182Z" fill="white"/>
</svg>
