<svg width="20" height="23" viewBox="0 0 22 25" fill="none" xmlns="http://www.w3.org/2000/svg">
<path d="M0.508698 0.986625C0.210216 1.36441 0.0695544 1.84596 0.11692 2.32788V22.7704C0.0891804 23.2405 0.239069 23.7036 0.536032 24.0654L0.60892 24.1394L11.8611 12.6416V12.3641L0.581587 0.921875L0.508698 0.986625Z" fill="#5BC9F4"/>
<path d="M15.5956 16.4503L11.8418 12.6393V12.3618L15.5956 8.55078H15.6867L20.1511 11.1685C21.4176 11.8993 21.4176 13.1018 20.1511 13.8325L15.6958 16.404L15.5956 16.4503Z" fill="url(#paint0_linear_6524_24845)"/>
<path d="M15.7027 16.4035L11.8578 12.5L0.505371 24.0163C0.764549 24.25 1.09648 24.3836 1.44299 24.3938C1.7895 24.4039 2.12846 24.2899 2.40048 24.0717L15.7027 16.4035Z" fill="url(#paint1_linear_6524_24845)"/>
<path d="M15.7027 8.59634L2.40048 0.928094C2.12846 0.709939 1.7895 0.595945 1.44299 0.606092C1.09648 0.61624 0.764549 0.749882 0.505371 0.983594L11.8578 12.4998L15.7027 8.59634Z" fill="url(#paint2_linear_6524_24845)"/>
<defs>
<linearGradient id="paint0_linear_6524_24845" x1="19.322" y1="12.5005" x2="-2.70865" y2="12.5005" gradientUnits="userSpaceOnUse">
<stop stop-color="#FEE000"/>
<stop offset="0.42" stop-color="#FBBC0E"/>
<stop offset="0.78" stop-color="#FAA418"/>
<stop offset="1" stop-color="#F99B1C"/>
</linearGradient>
<linearGradient id="paint1_linear_6524_24845" x1="13.6071" y1="14.6183" x2="-7.42494" y2="35.3345" gradientUnits="userSpaceOnUse">
<stop stop-color="#EF4547"/>
<stop offset="1" stop-color="#C6186D"/>
</linearGradient>
<linearGradient id="paint2_linear_6524_24845" x1="-7.20263" y1="-10.7454" x2="9.97251" y2="6.16274" gradientUnits="userSpaceOnUse">
<stop stop-color="#279E6F"/>
<stop offset="0.04" stop-color="#2BA06F"/>
<stop offset="0.46" stop-color="#53B26C"/>
<stop offset="0.8" stop-color="#6BBD6A"/>
<stop offset="1" stop-color="#74C169"/>
</linearGradient>
</defs>
</svg>
